<svg width="99" height="25" viewBox="0 0 99 25" fill="none" xmlns="http://www.w3.org/2000/svg">
<path d="M10.1645 0.303467H14.9986V5.0522H19.8328V9.88638H14.9986V5.13765H10.1645V0.303467Z" fill="white"/>
<path d="M14.9986 14.7206H10.1645V9.88638H14.9986V14.7206Z" fill="white"/>
<path d="M14.9986 14.7206H19.8328V19.5547H14.9986V24.3035H0.496094V5.0522H5.33028V19.4693H14.9986V14.7206Z" fill="white"/>
<path fill-rule="evenodd" clip-rule="evenodd" d="M38.1788 13.1072C39.8486 12.4842 40.6835 11.1757 40.6835 9.18197C40.6835 8.03556 40.2473 7.01375 39.3751 6.11655C38.5277 5.21936 37.0324 4.77076 34.8891 4.77076H28.833V21.967H35.562C37.6554 21.967 39.1383 21.5184 40.0106 20.6212C40.8828 19.724 41.319 18.6399 41.319 17.3689C41.319 15.2256 40.2723 13.805 38.1788 13.1072ZM34.4779 12.4343H33.0573V6.30347H34.4779C35.8237 6.30347 36.4966 7.32528 36.4966 9.36889C36.4966 11.4125 35.8237 12.4343 34.4779 12.4343ZM35.0012 20.4343H33.0573V13.9296H35.0012C35.6492 13.9296 36.1601 14.2785 36.5339 14.9764C36.9327 15.6493 37.1321 16.4468 37.1321 17.3689C37.1321 19.4125 36.4218 20.4343 35.0012 20.4343Z" fill="white"/>
<path d="M53.4179 21.967V19.9483H48.0347V4.77076H43.8104V21.967H53.4179Z" fill="white"/>
<path fill-rule="evenodd" clip-rule="evenodd" d="M61.9057 8.17263C61.0584 8.17263 60.211 8.33462 59.3637 8.65861V3.83618L55.1768 4.35954V21.967H57.1207L58.2048 20.9951C59.3014 21.8673 60.535 22.3035 61.9057 22.3035C65.6939 22.3035 67.588 19.9483 67.588 15.238C67.588 10.5278 65.6939 8.17263 61.9057 8.17263ZM60.6347 19.9483C60.2359 19.9483 59.8123 19.8486 59.3637 19.6493V10.4156C59.8621 10.291 60.2983 10.2287 60.6721 10.2287C61.669 10.2287 62.3792 10.6399 62.8029 11.4623C63.2266 12.2848 63.4384 13.5433 63.4384 15.238C63.4384 18.3782 62.5039 19.9483 60.6347 19.9483Z" fill="white"/>
<path d="M86.278 21.481L85.7172 19.6119C85.1191 19.886 84.6206 20.0231 84.2219 20.0231C83.5739 20.0231 83.2499 19.587 83.2499 18.7147V10.6399H85.792V8.50908H83.2499V5.25674L79.063 6.6773V8.50908H77.0443V10.6399H79.063V17.8923C79.063 19.562 79.3621 20.696 79.9602 21.2941C80.6331 21.967 81.5926 22.3035 82.8387 22.3035C84.1097 22.3035 85.2561 22.0293 86.278 21.481Z" fill="white"/>
<path d="M70.5681 21.967H74.755V11.5091H70.5681V21.967Z" fill="white"/>
<path d="M94.2733 13.7801L93.1518 13.3689C92.2795 13.1197 91.6191 12.858 91.1705 12.5838C90.7219 12.2848 90.4976 11.8985 90.4976 11.425C90.4976 10.6275 91.1206 10.2287 92.3667 10.2287C93.7375 10.2287 94.4976 11.1259 94.6471 12.9203L98.1237 12.4717C97.8995 11.0511 97.3387 9.97948 96.4415 9.25674C95.5443 8.534 94.2484 8.17263 92.5537 8.17263C90.859 8.17263 89.5007 8.534 88.4789 9.25674C87.482 9.95456 86.9836 10.939 86.9836 12.21C86.9836 13.4561 87.2826 14.4156 87.8808 15.0885C88.5038 15.7365 89.4384 16.2349 90.6845 16.5838L91.8808 16.9577C93.7748 17.481 94.7219 18.1664 94.7219 19.0137C94.7219 19.8362 94.0614 20.2474 92.7406 20.2474C92.0178 20.2474 91.4322 19.9982 90.9836 19.4997C90.535 19.0013 90.2733 18.3159 90.1985 17.4437L86.7593 17.9296C86.9836 19.3751 87.5443 20.4717 88.4415 21.2194C89.3636 21.9421 90.7094 22.3035 92.4789 22.3035C94.2484 22.3035 95.644 21.9296 96.6658 21.182C97.7125 20.4343 98.2359 19.4374 98.2359 18.1913C98.2359 16.9203 97.8995 15.9608 97.2266 15.3128C96.5537 14.6648 95.5692 14.1539 94.2733 13.7801Z" fill="white"/>
<path d="M70.5681 9.49095H74.755V5.28044H70.5681V9.49095Z" fill="white"/>
</svg>
