<svg width="114" height="23" viewBox="0 0 114 23" fill="none" xmlns="http://www.w3.org/2000/svg">
<path d="M8.7312 13.152H3.23804L3.20874 9.78284H7.66187C8.46265 9.78284 9.10229 9.69495 9.58081 9.51917C10.0593 9.33362 10.406 9.06506 10.6208 8.7135C10.8455 8.36194 10.9578 7.92249 10.9578 7.39514C10.9578 6.78967 10.8455 6.30139 10.6208 5.9303C10.3962 5.5592 10.0398 5.29065 9.55151 5.12463C9.073 4.94885 8.45288 4.86096 7.69116 4.86096H5.17163V22.2194H0.0300293V0.891235H7.69116C9.00952 0.891235 10.1863 1.01331 11.2214 1.25745C12.2566 1.49182 13.1355 1.85315 13.8582 2.34143C14.5906 2.82971 15.1472 3.44495 15.5281 4.18713C15.9089 4.91956 16.0994 5.78381 16.0994 6.77991C16.0994 7.64905 15.9138 8.46448 15.5427 9.2262C15.1716 9.98792 14.5515 10.608 13.6824 11.0865C12.823 11.5553 11.6462 11.7994 10.1521 11.819L8.7312 13.152ZM8.52612 22.2194H1.99292L3.75073 18.2643H8.52612C9.22925 18.2643 9.79077 18.1569 10.2107 17.942C10.6404 17.7174 10.948 17.4244 11.1335 17.0631C11.3289 16.692 11.4265 16.2819 11.4265 15.8326C11.4265 15.2858 11.3337 14.8121 11.1482 14.4117C10.9724 14.0114 10.6892 13.7037 10.2986 13.4889C9.90796 13.2643 9.3855 13.152 8.7312 13.152H4.40991L4.43921 9.78284H9.61011L10.8113 11.1305C12.2371 11.0719 13.365 11.2721 14.1951 11.7311C15.0349 12.1901 15.6355 12.7955 15.9968 13.5475C16.3582 14.2994 16.5388 15.0856 16.5388 15.9059C16.5388 17.3024 16.2361 18.4694 15.6306 19.4069C15.0349 20.3444 14.1414 21.0475 12.95 21.5162C11.7585 21.985 10.2839 22.2194 8.52612 22.2194ZM36.4871 18.2643V22.2194H25.7058V18.2643H36.4871ZM27.5369 0.891235V22.2194H22.3953V0.891235H27.5369ZM50.3562 13.152H44.863L44.8337 9.78284H49.2869C50.0876 9.78284 50.7273 9.69495 51.2058 9.51917C51.6843 9.33362 52.031 9.06506 52.2458 8.7135C52.4705 8.36194 52.5828 7.92249 52.5828 7.39514C52.5828 6.78967 52.4705 6.30139 52.2458 5.9303C52.0212 5.5592 51.6648 5.29065 51.1765 5.12463C50.698 4.94885 50.0779 4.86096 49.3162 4.86096H46.7966V22.2194H41.655V0.891235H49.3162C50.6345 0.891235 51.8113 1.01331 52.8464 1.25745C53.8816 1.49182 54.7605 1.85315 55.4832 2.34143C56.2156 2.82971 56.7722 3.44495 57.1531 4.18713C57.5339 4.91956 57.7244 5.78381 57.7244 6.77991C57.7244 7.64905 57.5388 8.46448 57.1677 9.2262C56.7966 9.98792 56.1765 10.608 55.3074 11.0865C54.448 11.5553 53.2712 11.7994 51.7771 11.819L50.3562 13.152ZM50.1511 22.2194H43.6179L45.3757 18.2643H50.1511C50.8542 18.2643 51.4158 18.1569 51.8357 17.942C52.2654 17.7174 52.573 17.4244 52.7585 17.0631C52.9539 16.692 53.0515 16.2819 53.0515 15.8326C53.0515 15.2858 52.9587 14.8121 52.7732 14.4117C52.5974 14.0114 52.3142 13.7037 51.9236 13.4889C51.533 13.2643 51.0105 13.152 50.3562 13.152H46.0349L46.0642 9.78284H51.2351L52.4363 11.1305C53.8621 11.0719 54.99 11.2721 55.8201 11.7311C56.6599 12.1901 57.2605 12.7955 57.6218 13.5475C57.9832 14.2994 58.1638 15.0856 58.1638 15.9059C58.1638 17.3024 57.8611 18.4694 57.2556 19.4069C56.6599 20.3444 55.7664 21.0475 54.575 21.5162C53.3835 21.985 51.9089 22.2194 50.1511 22.2194ZM69.4841 0.891235V22.2194H64.3572V0.891235H69.4841ZM85.99 0.891235V22.2194H80.8484V0.891235H85.99ZM92.406 0.891235V4.86096H74.5789V0.891235H92.406ZM108.341 16.5504C108.341 16.2184 108.292 15.9205 108.194 15.6569C108.096 15.3834 107.916 15.1295 107.652 14.8951C107.388 14.6608 107.008 14.4264 106.51 14.192C106.021 13.9479 105.377 13.694 104.576 13.4303C103.638 13.1178 102.735 12.7662 101.866 12.3756C100.997 11.9752 100.22 11.5114 99.5369 10.984C98.8533 10.4469 98.3113 9.8219 97.9109 9.10901C97.5105 8.38635 97.3103 7.54651 97.3103 6.58948C97.3103 5.67151 97.5154 4.84631 97.9255 4.11389C98.3357 3.3717 98.907 2.74182 99.6394 2.22424C100.382 1.6969 101.251 1.29651 102.247 1.02307C103.243 0.739868 104.332 0.598267 105.513 0.598267C107.076 0.598267 108.453 0.871704 109.644 1.41858C110.845 1.95569 111.783 2.72229 112.457 3.71838C113.14 4.70471 113.482 5.8717 113.482 7.21936H108.37C108.37 6.68225 108.258 6.20862 108.033 5.79846C107.818 5.38831 107.491 5.06604 107.052 4.83167C106.612 4.59729 106.06 4.4801 105.396 4.4801C104.752 4.4801 104.21 4.57776 103.77 4.77307C103.331 4.96838 102.999 5.23206 102.774 5.56409C102.55 5.88635 102.437 6.2428 102.437 6.63342C102.437 6.95569 102.525 7.24866 102.701 7.51233C102.886 7.76624 103.145 8.00549 103.477 8.2301C103.819 8.45471 104.229 8.66956 104.708 8.87463C105.196 9.07971 105.743 9.27991 106.348 9.47522C107.481 9.83655 108.487 10.2418 109.366 10.691C110.255 11.1305 111.002 11.6334 111.607 12.1998C112.222 12.7565 112.686 13.3912 112.999 14.1041C113.321 14.817 113.482 15.6227 113.482 16.5211C113.482 17.4781 113.297 18.3278 112.926 19.0699C112.554 19.8121 112.022 20.442 111.329 20.9596C110.635 21.4674 109.805 21.8531 108.839 22.1168C107.872 22.3805 106.793 22.5123 105.601 22.5123C104.508 22.5123 103.428 22.3756 102.364 22.1022C101.309 21.819 100.352 21.3893 99.4929 20.8131C98.6335 20.2272 97.9451 19.4801 97.4275 18.5719C96.9197 17.6539 96.6658 16.5651 96.6658 15.3053H101.822C101.822 15.9303 101.905 16.4576 102.071 16.8873C102.237 17.317 102.481 17.6637 102.803 17.9274C103.126 18.1813 103.521 18.3668 103.99 18.484C104.459 18.5914 104.996 18.6451 105.601 18.6451C106.256 18.6451 106.783 18.5524 107.183 18.3668C107.584 18.1715 107.877 17.9176 108.062 17.6051C108.248 17.2828 108.341 16.9313 108.341 16.5504Z" fill="white"/>
</svg>
